<svg version="1.1" id="svg2985" xmlns="http://www.w3.org/2000/svg" x="0" y="0" viewBox="0 0 440.7 1000" style="enable-background:new 0 0 440.7 1000" xml:space="preserve"><style>.st1{fill:#c80f2e}</style><path id="rect2987" d="M102.9 0h234.9c57 0 102.9 45.9 102.9 102.9v794.2c0 57-45.9 102.9-102.9 102.9H102.9C45.9 1000 0 954.1 0 897.1V102.9C0 45.9 45.9 0 102.9 0z" style="fill:#fff"/><path id="path2989" class="st1" d="m279.5 183.3.3 3.4c7.1 4.2 10.8 7.6 18 12.2 19 12.1 42.4 33.5 39.5 107.1 5.5 16.1 7.9 47.5 12.7 57.5 9.8 19.8 16.6 32.7 19.5 51.2 0 0 2.9 29 6.6 31.1 19.6 4.5 14 6.4 16.8 10 3.1 3.9 14.5 3.7 14.5 14.3 4 5.3 7.1 10.6 9.2 16.4V103.7c0-43.8-35.4-79.2-79.1-79.2H262c12.1 4.3 19 9.5 23 17.6 9.7.8 21.1 22.6 3.2 54.9 7.9 5.5 1.8 13.5-3.9 22.7-1.8 2.9-3.5 8.2-8.9 7.9-7.1 14.7-15.3 28.5-21.6 29.3-1.8 2.3-3.1 8.5-.3 11.4 9.2 4.2 20.3 9.7 26 15z"/><path id="path2991" class="st1" d="m350 974.5-.8.2c34.6-21.1 13.2-61 6.6-84.6l1.3-4c1.8-3.2-1.9-10.8-1.9-10.8-4.3-3.5-5.3-23.2-7.6-32.2-3.7-14.7 6.6-40.3 6.6-49 0-8.7-6.6-20.6-18.5-35.8-2.9-3.4-11.6-77.6-19.3-96.5-10.8-25.9-14-21.7-26.9-52.8-9.8-21.7-2.1-53.8-24.3-128.2l5-4.7s-17.7-64.8-23.5-82.5c-5.6-17.7-16.1-18.8-16.1-18.8l.6-9.2c.8-2.7 21.6-56.7 23.4-58.5.2-1.1 30-21.6 30.4-18.5 2.4 13.2 14 80.4 19 91 5 10.8 22.2 43.7 30.1 64.1-30.8 7.6-53.8 35.4-53.8 68.5 0 39 31.6 70.7 70.6 70.7 29.8 0 55.6-18.5 65.9-44.6l-.2 358.1c-.1 39.6-28.6 72.3-66.6 78.1z"/><path id="path2993" d="M237.1 24.5c-25.8 10-29.3 21.1-30.3 56.9-4.3.5-13.4-3.7-10.3 18 0 0 1.6 14.5 7.4 12.1-4.5 31.6-.9 39.5-21.9 41.7-4.5.5-10 .8-16.8 1.1l-2.1 2.9c-28.7 2.7-42.9.9-61.4 25.3-7.1 9.3-14.7 22.6-24 41.4 0 0-8.5 21.1-11.1 29.8-8.2 17.2-28.3 55.4-34.3 79.9-1.9 8.4-5.6 11-.3 23 7.9 17.4-5.2 21.9 39.6 20.6v10.3s-11.9 10.3-14.5 16.4c-2.4 6.3-9.3 37-9 51.7.8 38.2 31.9 70.1 41.1 108.1l20.8 2.9c11.3 25.9 60.6 95.8 72 107.1l.5.5c2.6 6.6 15.3 14.8 22.7 23 4.5 4.3 25.3 26.9 53 48.3 10.2 7.9 21.1 15.6 32.5 22.2-.3-.2 6.8 14 10.3 25.6-14.2 11.4 13.4 32.4 21.7 67 .5 4.7-8.1 9.3 4.7 20.8-.8 52.3-16.7 79.7 10 94.2H101.8c-42.8-1-77.5-36.1-77.5-79.1V103.7c0-43.3 34.6-78.3 77.5-79.2h135.3z" style="fill:#1d4289"/></svg>